<?xml version="1.0" encoding="UTF-8" standalone="no" ?>
<!DOCTYPE svg PUBLIC "-//W3C//DTD SVG 1.1//EN" "http://www.w3.org/Graphics/SVG/1.1/DTD/svg11.dtd">
<svg xmlns="http://www.w3.org/2000/svg" xmlns:xlink="http://www.w3.org/1999/xlink" version="1.1" width="640" height="640" viewBox="0 0 640 640" xml:space="preserve">
<desc>Created with Fabric.js 4.6.0</desc>
<defs>
</defs>
<g transform="matrix(1 0 0 0.89 327 326)" id="fl9KrYRfJgljDPIqhd2M0"  >
<path style="stroke: rgb(5,199,90); stroke-width: 0; stroke-dasharray: none; stroke-linecap: butt; stroke-dashoffset: 0; stroke-linejoin: miter; stroke-miterlimit: 4; fill: rgb(236,59,119); fill-rule: nonzero; opacity: 1;" vector-effect="non-scaling-stroke"  transform=" translate(0, 0)" d="M -54 -220 L 54 -220 L 54 220 L -54 220 z" stroke-linecap="round" />
</g>
<g transform="matrix(-1 0 0 0.89 316.5 314.5)" id="I7fvc-Fbjl2uuRESI5CBB"  >
<path style="stroke: rgb(5,199,90); stroke-width: 0; stroke-dasharray: none; stroke-linecap: butt; stroke-dashoffset: 0; stroke-linejoin: miter; stroke-miterlimit: 4; fill: rgb(255,64,129); fill-rule: nonzero; opacity: 1;" vector-effect="non-scaling-stroke"  transform=" translate(0, 0)" d="M -54 -220 L 54 -220 L 54 220 L -54 220 z" stroke-linecap="round" />
</g>
<g transform="matrix(1 0 0 1 442.5 382)" id="vUuuhAuwEuBnfubiYSVrn"  >
<path style="stroke: rgb(5,199,90); stroke-width: 0; stroke-dasharray: none; stroke-linecap: butt; stroke-dashoffset: 0; stroke-linejoin: miter; stroke-miterlimit: 4; fill: rgb(236,236,236); fill-rule: nonzero; opacity: 1;" vector-effect="non-scaling-stroke"  transform=" translate(-54, -140)" d="M 0 0 L 108 0 L 108 280 L 0 280 z" stroke-linecap="round" />
</g>
<g transform="matrix(1 0 0 1 434.5 371)" id="SbIwRkDKC0-bYZ2oBHQFt"  >
<path style="stroke: rgb(5,199,90); stroke-width: 0; stroke-dasharray: none; stroke-linecap: butt; stroke-dashoffset: 0; stroke-linejoin: miter; stroke-miterlimit: 4; fill: rgb(255,255,255); fill-rule: nonzero; opacity: 1;" vector-effect="non-scaling-stroke"  transform=" translate(-54, -140)" d="M 0 0 L 108 0 L 108 280 L 0 280 z" stroke-linecap="round" />
</g>
<g transform="matrix(1 0 0 1 208.5 359.5)" id="5bJx0IWu3-l-WuyQGbvJ9"  >
<path style="stroke: rgb(5,199,90); stroke-width: 0; stroke-dasharray: none; stroke-linecap: butt; stroke-dashoffset: 0; stroke-linejoin: miter; stroke-miterlimit: 4; fill: rgb(87,60,39); fill-rule: nonzero; opacity: 1;" vector-effect="non-scaling-stroke"  transform=" translate(-54, -162.5)" d="M 0 0 L 108 0 L 108 325 L 0 325 z" stroke-linecap="round" />
</g>
<g transform="matrix(1 0 0 1 197.5 349.5)" id="PEYHkgWmPlsqYRGisHY-Q"  >
<path style="stroke: rgb(5,199,90); stroke-width: 0; stroke-dasharray: none; stroke-linecap: butt; stroke-dashoffset: 0; stroke-linejoin: miter; stroke-miterlimit: 4; fill: rgb(112,79,67); fill-rule: nonzero; opacity: 1;" vector-effect="non-scaling-stroke"  transform=" translate(-54, -162.5)" d="M 0 0 L 108 0 L 108 325 L 0 325 z" stroke-linecap="round" />
</g>
</svg>