<?xml version="1.0" encoding="UTF-8" standalone="no" ?>
<!DOCTYPE svg PUBLIC "-//W3C//DTD SVG 1.1//EN" "http://www.w3.org/Graphics/SVG/1.1/DTD/svg11.dtd">
<svg xmlns="http://www.w3.org/2000/svg" xmlns:xlink="http://www.w3.org/1999/xlink" version="1.1" width="640" height="640" viewBox="0 0 640 640" xml:space="preserve">
<desc>Created with Fabric.js 4.6.0</desc>
<defs>
</defs>
<g transform="matrix(1 0 0 0.87 327 331)" id="fl9KrYRfJgljDPIqhd2M0"  >
<path style="stroke: rgb(5,199,90); stroke-width: 0; stroke-dasharray: none; stroke-linecap: butt; stroke-dashoffset: 0; stroke-linejoin: miter; stroke-miterlimit: 4; fill: rgb(236,59,119); fill-rule: nonzero; opacity: 1;" vector-effect="non-scaling-stroke"  transform=" translate(0, 0)" d="M -54 -220 L 54 -220 L 54 220 L -54 220 z" stroke-linecap="round" />
</g>
<g transform="matrix(-1 0 0 0.86 317 320)" id="I7fvc-Fbjl2uuRESI5CBB"  >
<path style="stroke: rgb(5,199,90); stroke-width: 0; stroke-dasharray: none; stroke-linecap: butt; stroke-dashoffset: 0; stroke-linejoin: miter; stroke-miterlimit: 4; fill: rgb(255,64,129); fill-rule: nonzero; opacity: 1;" vector-effect="non-scaling-stroke"  transform=" translate(0, 0)" d="M -54 -220 L 54 -220 L 54 220 L -54 220 z" stroke-linecap="round" />
</g>
<g transform="matrix(1 0 0 0.86 443 401)" id="vUuuhAuwEuBnfubiYSVrn"  >
<path style="stroke: rgb(5,199,90); stroke-width: 0; stroke-dasharray: none; stroke-linecap: butt; stroke-dashoffset: 0; stroke-linejoin: miter; stroke-miterlimit: 4; fill: rgb(236,236,236); fill-rule: nonzero; opacity: 1;" vector-effect="non-scaling-stroke"  transform=" translate(0, 0)" d="M -54 -140 L 54 -140 L 54 140 L -54 140 z" stroke-linecap="round" />
</g>
<g transform="matrix(1 0 0 0.86 435 390)" id="SbIwRkDKC0-bYZ2oBHQFt"  >
<path style="stroke: rgb(5,199,90); stroke-width: 0; stroke-dasharray: none; stroke-linecap: butt; stroke-dashoffset: 0; stroke-linejoin: miter; stroke-miterlimit: 4; fill: rgb(255,255,255); fill-rule: nonzero; opacity: 1;" vector-effect="non-scaling-stroke"  transform=" translate(0, 0)" d="M -54 -140 L 54 -140 L 54 140 L -54 140 z" stroke-linecap="round" />
</g>
<g transform="matrix(1 0 0 0.94 209 368.5)" id="5bJx0IWu3-l-WuyQGbvJ9"  >
<path style="stroke: rgb(5,199,90); stroke-width: 0; stroke-dasharray: none; stroke-linecap: butt; stroke-dashoffset: 0; stroke-linejoin: miter; stroke-miterlimit: 4; fill: rgb(87,60,39); fill-rule: nonzero; opacity: 1;" vector-effect="non-scaling-stroke"  transform=" translate(0, 0)" d="M -54 -162.5 L 54 -162.5 L 54 162.5 L -54 162.5 z" stroke-linecap="round" />
</g>
<g transform="matrix(1 0 0 0.94 198 358)" id="PEYHkgWmPlsqYRGisHY-Q"  >
<path style="stroke: rgb(5,199,90); stroke-width: 0; stroke-dasharray: none; stroke-linecap: butt; stroke-dashoffset: 0; stroke-linejoin: miter; stroke-miterlimit: 4; fill: rgb(112,79,67); fill-rule: nonzero; opacity: 1;" vector-effect="non-scaling-stroke"  transform=" translate(0, 0)" d="M -54 -162.5 L 54 -162.5 L 54 162.5 L -54 162.5 z" stroke-linecap="round" />
</g>
</svg>